# xmcd
#
# Track frame offsets: 
#        150
#        12448
#        27558
#        37909
#        59183
#        70546
#        86409
#        99567
#        112379
#        123720
#        138760
#        151796
#        162612
#        178757
#        188068
#        198206
#        211926
#        226116
#        243915
#        256330
#
# Disc length: 3588 seconds
#
# Revision: 0
# Processed by: cddbd v1.5.2PL0 Copyright (c) Steve Scherf et al.
# Submitted via: ExactAudioCopy v1.0b1
#
DISCID=140e0214
DTITLE=Various Artist - 100 Golden Country Hits CD1
DYEAR=1900
DGENRE=Country
TTITLE0=Johny Cash - I Walk The Line
TTITLE1=Billie Jo Spears - Blanket On The Ground
TTITLE2=Dave Dudley - Six Days On The Road
TTITLE3=Olivia Newton-John - Banks Of The Ohio
TTITLE4=Don Gibson - Sea Of Heartbreak
TTITLE5=Connie Francis - It Doesn't Matter Anymore
TTITLE6=Kenny Rogers - Ruby, Don't You Take Your Love To Town
TTITLE7=Faron Young - It's Four In The Morning
TTITLE8=Willie Nelson - Country Willie
TTITLE9=Billie Davis - Angel Of The Morning
TTITLE10=The Bellamy Brothers - Get Into Reggae Cowboy
TTITLE11=Roger Miller - King Of The Road
TTITLE12=Juice Newton and Randy Meisner - Heart Of Gold
TTITLE13=Ronnie Hawkins - Hey Good Lookin'
TTITLE14=Statler Brothers - Do You Know You Are My Sunshine
TTITLE15=Eddie Rabbitt - Drivin' My Life Away
TTITLE16=Stonewall Jackson - Don't Be Angry
TTITLE17=Bobby Goldsboro - Honey
TTITLE18=Bobby Bare - Music City USA
TTITLE19=Charlie Rich - The Most Beautiful Girl
EXTD=
EXTT0=
EXTT1=
EXTT2=
EXTT3=
EXTT4=
EXTT5=
EXTT6=
EXTT7=
EXTT8=
EXTT9=
EXTT10=
EXTT11=
EXTT12=
EXTT13=
EXTT14=
EXTT15=
EXTT16=
EXTT17=
EXTT18=
EXTT19=
PLAYORDER=
